<svg xmlns="http://www.w3.org/2000/svg" viewBox="629.5 324.0 120.4 121.5">
  <path fill="#0E0E0E" d="M741.96,422.95c0,.77-.44,1.47-1.13,1.81-4.3,2.05-18.25,8.61-24.41,10.06-1.75.41-3.66.6-4.95-.44-.79-.64-.81-1.3-1.74-3.72-1.23-3.22-1.85-4.84-2.98-5.45-.53-.29-2.13-.93-5.45.99,0,0-5.75,2.99-16.12,6.69-5.88,2.1-8.83,3.16-11.41,1.74-4.08-2.25-2.42-8.04-5.7-9.42-3.39-1.42-6.48,4.17-17.6,8.68-8.76,3.55-10.92,1.74-11.41,1.24-.8-.81-.94-1.9-.99-2.48-.55-6.64-.31-83.27-.26-98.68,0-1.1.9-1.98,2-1.98h99.91c1.1,0,1.99.89,2,1.99.08,29.66.16,59.32.24,88.99Z" />
  <path fill="#EDEAE4" d="M672.7,347.26h43.5l-2.51,17.36h-23.4l-1.06,7.31h18.64l-2.11,14.62h-18.64l-3.56,24.67h-20.11l9.23-63.97Z" />
</svg>
